<?xml version="1.0" encoding="UTF-8"?>
<svg version="1.1" xmlns="http://www.w3.org/2000/svg" width="1000" height="851">
<path d="M0 0 C10.89226872 8.23382224 16.98916105 18.44607166 19.29854965 31.72755051 C20.02260135 37.10424258 20.07242881 42.46489139 20.12597656 47.88354492 C20.14577576 49.14221878 20.16557495 50.40089264 20.18597412 51.69770813 C20.23958392 55.12210154 20.28190116 58.54654822 20.32197809 61.97112322 C20.3662299 65.59097938 20.42079274 69.21068161 20.47409058 72.83041382 C20.56235291 78.92113252 20.64391602 85.01190946 20.72070312 91.1027832 C20.8278847 99.60338524 20.94749191 108.10377833 21.06949449 116.60417867 C21.15473554 122.57600218 21.23699407 128.54786747 21.31867743 134.51974058 C21.3381623 135.94427441 21.35771436 137.36880732 21.37733698 138.79333925 C21.49378867 147.26803851 21.59443759 155.74270227 21.67429352 164.2178421 C21.71481373 167.77698437 21.77765955 171.33522331 21.84320068 174.89398193 C21.87138059 177.10240876 21.89894065 179.3108436 21.92578125 181.51928711 C21.96141772 182.97771247 21.96141772 182.97771247 21.99777412 184.46560097 C22.10157053 196.91707289 18.70320911 208.92534905 10.27001953 218.35375977 C0.64223618 227.44935408 -10.24397911 231.46793206 -23.41625977 231.29541016 C-35.02403237 230.78090348 -45.148511 225.50253962 -53.03466797 217.07250977 C-60.42328856 208.08959285 -63.13669869 198.45099321 -63.83154297 187.05297852 C-63.87585449 186.35700562 -63.92016602 185.66103271 -63.96582031 184.94396973 C-64.07420262 183.23694843 -64.17972203 181.52974577 -64.28466797 179.82250977 C-64.94716553 180.91414429 -64.94716553 180.91414429 -65.62304688 182.02783203 C-74.93295549 197.36739312 -84.24990104 212.70261414 -93.58300781 228.02807617 C-96.48426234 232.79246058 -99.38440004 237.55752474 -102.28466797 242.32250977 C-103.45132947 244.23917957 -104.61799614 246.15584624 -105.78466797 248.07250977 C-106.36216797 249.02125977 -106.93966797 249.97000977 -107.53466797 250.94750977 C-109.28466797 253.82250977 -111.03466797 256.69750977 -112.78466797 259.57250977 C-113.3625708 260.52198486 -113.94047363 261.47145996 -114.53588867 262.44970703 C-115.69825898 264.35918789 -116.86085529 266.2685312 -118.02368164 268.17773438 C-121.00798595 273.07821894 -123.98787876 277.98130366 -126.96044922 282.88891602 C-152.32324479 324.7339765 -152.32324479 324.7339765 -172.15576172 330.16625977 C-183.9034609 332.63019667 -194.558607 329.42202461 -204.78076172 323.47485352 C-217.61182312 315.00755403 -222.51776949 299.2009808 -228.53466797 285.69750977 C-229.32230474 283.938222 -230.11015075 282.17902789 -230.89819336 280.41992188 C-238.43410647 263.5740855 -245.8503314 246.67540726 -253.2454834 229.76741028 C-256.45619744 222.42689507 -259.68073344 215.09252769 -262.90966797 207.76000977 C-263.365271 206.72497314 -263.82087402 205.68993652 -264.2902832 204.62353516 C-265.28823263 202.35644788 -266.28634651 200.08943323 -267.28466797 197.82250977 C-270.63699922 201.66765789 -272.30675381 206.19123933 -274.24951172 210.84204102 C-274.63450333 211.75108688 -275.01949493 212.66013275 -275.41615295 213.59672546 C-276.68989284 216.60737329 -277.9559408 219.62119543 -279.22216797 222.63500977 C-280.11937118 224.75895415 -281.01716724 226.8826482 -281.91552734 229.00610352 C-283.78290386 233.42131281 -285.6477143 237.83759278 -287.51074219 242.25463867 C-291.33759385 251.3224069 -295.19530194 260.37700226 -299.05316162 269.43161011 C-301.1252292 274.29568528 -303.1951112 279.16069028 -305.26513672 284.02563477 C-305.67669006 284.99274887 -306.08824341 285.95986298 -306.51226807 286.95628357 C-309.92761005 294.98230389 -313.34119454 303.00907113 -316.75358582 311.03634644 C-318.86877498 316.01136675 -320.98594122 320.98552677 -323.10766602 325.95776367 C-326.62316627 334.19862638 -330.13491873 342.44016811 -333.57698059 350.71203613 C-334.92824905 353.95647666 -336.28923428 357.19679237 -337.65145874 360.43664551 C-338.2698995 361.91512386 -338.88356863 363.39560956 -339.49185181 364.8782959 C-345.00313295 378.30788716 -351.73314617 389.39633095 -365.09716797 395.96313477 C-375.57314704 400.07869797 -388.23617143 400.90620893 -398.84716797 396.76000977 C-410.88738947 390.8314913 -418.4397342 382.4909613 -423.30810547 370.03735352 C-427.65639584 355.72278162 -423.6275349 343.82009627 -417.90966797 330.63500977 C-417.33925681 329.29962442 -416.76979252 327.9638343 -416.20117188 326.62768555 C-414.93653545 323.66032346 -413.66623457 320.69546923 -412.39208984 317.73217773 C-410.12958449 312.46709144 -407.88583784 307.19409763 -405.64404297 301.92016602 C-404.82447577 299.99234479 -404.0048955 298.06452911 -403.18530273 296.13671875 C-402.77095978 295.16209686 -402.35661682 294.18747498 -401.92971802 293.18331909 C-400.64937507 290.1733118 -399.3675331 287.16394726 -398.08520508 284.15478516 C-392.18452674 270.30646099 -386.31903781 256.44362736 -380.47216797 242.57250977 C-374.90572697 229.36866101 -369.31437975 216.17631153 -363.65966797 203.01000977 C-358.42948143 190.8317446 -353.21881356 178.6454556 -348.03466797 166.44750977 C-347.68486877 165.62457428 -347.33506958 164.80163879 -346.97467041 163.95376587 C-342.3697593 153.1173996 -337.7840132 142.27305974 -333.21253967 131.42254639 C-330.012632 123.82798755 -326.80405155 116.23712704 -323.59068298 108.64825439 C-321.50732421 103.72511839 -319.43629975 98.79715688 -317.38034058 93.86251831 C-316.22669264 91.10043652 -315.06177774 88.34321551 -313.89367676 85.58721924 C-313.13369162 83.78416177 -312.38800874 81.97509582 -311.64306641 80.16577148 C-305.94405504 66.7919591 -298.21402395 56.08753289 -284.87841797 49.86157227 C-273.80231814 45.42445998 -261.90779674 46.05319772 -250.90966797 50.54516602 C-233.90774777 58.81842183 -227.99428999 74.00942126 -220.90966797 90.44750977 C-220.03290321 92.4547278 -219.15487015 94.46139226 -218.27563477 96.4675293 C-216.47567681 100.57963087 -214.68298696 104.69477946 -212.89648438 108.81274414 C-210.47491662 114.39171825 -208.03110552 119.96062773 -205.57763672 125.52563477 C-199.48973626 139.34137006 -193.43301215 153.17041518 -187.41748047 167.01782227 C-187.0208873 167.93014618 -186.62429413 168.84247009 -186.21568298 169.78244019 C-184.30758537 174.17189818 -182.40177323 178.56231494 -180.50073242 182.95483398 C-179.82333446 184.51493265 -179.14584922 186.07499342 -178.46826172 187.63500977 C-178.15877594 188.35262482 -177.84929016 189.07023987 -177.53042603 189.80960083 C-176.27769039 193.04886335 -176.27769039 193.04886335 -174.28466797 195.82250977 C-173.84300293 195.09475342 -173.40133789 194.36699707 -172.94628906 193.6171875 C-163.63638045 178.27762641 -154.3194349 162.94240539 -144.98632812 147.61694336 C-142.67095584 143.8146835 -140.35631244 140.0119802 -138.04174805 136.20922852 C-136.87111562 134.28598858 -135.70038007 132.36281141 -134.52954102 130.43969727 C-131.6360705 125.68697345 -128.74400115 120.93340873 -125.85498047 116.17797852 C-119.75749772 106.14490295 -113.63324339 96.12917521 -107.47216797 86.13500977 C-101.89858015 77.09167297 -96.35734554 68.02955339 -90.84716797 58.94750977 C-90.49836578 58.37290009 -90.1495636 57.79829041 -89.79019165 57.20626831 C-86.13041906 51.17694697 -82.47652834 45.1441605 -78.83683777 39.10269165 C-77.31288935 36.57408665 -75.7863228 34.04706734 -74.25949097 31.52020264 C-73.54001324 30.32784085 -72.82180102 29.13471429 -72.10501099 27.94073486 C-55.6552091 0.54121071 -55.6552091 0.54121071 -42.28466797 -4.86499023 C-40.76873047 -5.48954102 -40.76873047 -5.48954102 -39.22216797 -6.12670898 C-25.54593562 -11.01887189 -11.6271658 -8.24916456 0 0 Z " fill="#000000" transform="translate(704.28466796875,219.177490234375)"/>
<path d="M0 0 C5.84503975 4.86915438 9.79365435 10.12403443 13 17 C13.30808594 17.62390625 13.61617187 18.2478125 13.93359375 18.890625 C18.42339091 29.11619174 17.71130173 41.02176764 14.18359375 51.40234375 C9.88915315 61.9138406 1.87741002 71.48512093 -8.5 76.375 C-21.77658932 81.55722657 -34.71438823 81.27997936 -48 76 C-59.65547938 69.71908001 -66.90350119 60.11626573 -71.1171875 47.7109375 C-74.11157778 35.12389871 -72.4082052 22.47083807 -65.875 11.375 C-59.22413662 1.50327825 -50.2006373 -5.28277544 -38.625 -8.3125 C-24.79252043 -10.84075637 -11.33981246 -8.45227168 0 0 Z " fill="#000000" transform="translate(710,487)"/>
</svg>
